<svg width="1254" height="1254" viewBox="0 0 1254 1254" fill="none" xmlns="http://www.w3.org/2000/svg">

<path d="M571.009 175.388C593.555 174.521 620.24 175.225 643.024 175.224L778.754 175.218L853.057 175.207C886.629 175.157 913.032 171.931 941.131 194.671C960.29 210.238 972.475 232.784 974.997 257.341C977.385 281.551 970.001 305.711 954.479 324.443C941.761 339.973 924.28 350.874 904.735 355.456C891.675 358.521 877.825 357.718 864.372 357.692L823.672 357.645L652.949 357.668L599.081 357.621C588.313 357.613 575.154 357.265 564.646 358.299C528.159 361.677 494.573 379.619 471.48 408.07C449.317 435.492 438.875 470.554 442.423 505.633C446.047 538.703 463.263 568.165 489.02 588.935C499.527 596.857 512.484 603.096 521.591 611.15C537.472 625.243 546.988 645.155 547.981 666.365C549.198 688.806 540.546 712.018 525.498 728.661C510.192 745.573 488.75 755.639 465.964 756.625C424.949 758.45 381.842 730.045 352.529 703.275C296.399 652.025 265.527 581.272 262.218 505.679C259.247 422.099 289.325 340.713 345.934 279.152C403.903 215.636 485.064 178.219 571.009 175.388Z" fill="#BD5D3A"/>
<path d="M747.355 478.465C788.459 475.134 839.494 509.685 867.764 537.82C922.027 592.763 952.471 666.861 952.507 744.079C953.334 826.581 921.102 905.972 863.007 964.551C815.124 1011.99 752.498 1041.67 685.463 1048.67C665.3 1050.75 644.665 1050.17 624.367 1050.16L538.369 1050.12L462.758 1050.05C511.574 1002.69 523.201 935.699 488.829 876.043C487.21 873.232 485.542 870.452 483.871 867.673L599.255 867.709C616.701 867.721 642.644 868.597 659.446 867.464C690.949 865.082 720.211 850.259 740.766 826.262C762.221 801.611 772.551 767.965 770.028 735.494C767.279 700.666 749.314 668.82 720.934 648.449C710.457 640.918 700.636 637.115 690.343 628.218C673.413 613.639 662.967 592.932 661.314 570.651C659.703 547.476 667.639 524.649 683.271 507.466C700.556 488.159 721.969 479.888 747.355 478.465Z" fill="#DE7356"/>
<path d="M363.102 841.509C420.858 836.959 471.394 880.029 476.061 937.775C480.728 995.522 437.764 1046.15 380.027 1050.94C322.121 1055.74 271.316 1012.62 266.635 954.699C261.954 896.787 305.176 846.07 363.102 841.509Z" fill="#BD5D3A"/>
</svg>
