<svg width="1774" height="887" viewBox="0 0 1774 887" fill="none" xmlns="http://www.w3.org/2000/svg">
<g clip-path="url(#clip0_1_10)">

<path d="M735.899 336.455C746.887 335.301 766.411 339.524 776.489 344.21C800.349 355.302 811.758 369.184 820.982 392.995C808.741 397.913 796.555 402.964 784.423 408.146C775.403 388.039 763.917 376.747 740.349 376.112C722.493 375.631 701.329 384.961 700.752 405.369C700.178 425.652 723.445 432.294 739.148 436.366C762.647 443.387 790.099 448.676 807.807 466.851C831.775 491.447 830.055 534.759 804.804 557.913C782.879 578.019 758.202 580.837 729.859 580.248C689.801 575.927 663.459 559.009 650.138 520.348C662.478 515.233 675.367 509.672 687.838 505.053C691.262 514.2 695.315 521.974 702.766 528.907C720.96 545.837 757.121 548.069 774.946 529.807C779.703 524.933 782.701 515.315 781.695 508.456C777.411 479.274 733.415 479.63 711.552 470.948C698.681 467.034 688.057 462.187 677.578 453.618C650.65 431.602 651.392 388.07 673.61 362.908C689.933 344.421 711.805 338.198 735.899 336.455Z" fill="#0A1521"/>
<path d="M1511.36 405.73C1513.82 405.424 1518.49 405.362 1520.98 405.472C1542.99 406.237 1563.77 415.847 1578.6 432.128C1598 453.537 1601.59 478.232 1600.21 505.939L1475.57 505.959C1476.19 508.699 1477.03 512.533 1478.04 515.122C1493.17 553.567 1542.75 553.281 1564.98 522.981L1576.5 531.14L1595.13 543.958C1594.43 544.99 1593.69 545.999 1592.92 546.983C1577.04 567.381 1560.05 576.037 1533.96 579.697C1450.7 591.373 1403.76 502.696 1452.27 437.319C1466.16 418.611 1487.87 408.413 1511.36 405.73Z" fill="#0A1521"/>
<path d="M1517.31 442.077C1540.56 442.172 1554.44 453.679 1559.26 476.327L1520.63 476.379L1476.59 476.284C1483.52 454.95 1494.32 444.503 1517.31 442.077Z" fill="white"/>
<path d="M1158.91 409.641L1202.87 409.708C1189.12 445.753 1174.94 481.636 1160.34 517.349C1154.96 532.312 1146.45 551.396 1140.22 566.286L1106.28 647.87L1063.65 647.887C1074.17 623.782 1084.51 599.599 1094.67 575.342C1070.39 520.643 1047.28 465.43 1025.38 409.739L1069.53 409.656C1084.33 448.779 1099.39 487.801 1114.73 526.722C1119.89 514.897 1125.76 497.574 1130.41 485.182L1158.91 409.641Z" fill="#0A1521"/>
<path d="M929.055 405.724C937.05 404.544 951.359 406.239 959.155 408.445C984.293 415.563 999.763 427.945 1012.72 450.025C1001.57 455.298 989.083 462.101 978.013 467.815C967.592 451.519 951.758 440.017 931.168 442.662C887.771 448.238 876.172 510.29 909.175 535.162C926.898 548.519 953.845 546.797 969.576 530.996C973.249 527.314 975.509 524.442 978.593 520.101C989.481 526.787 1000.42 533.371 1011.43 539.852C1009.63 542.629 1007.71 545.319 1005.65 547.912C975.596 585.545 914.58 591.749 879.23 561.193C820.07 510.041 850.33 413.521 929.055 405.724Z" fill="#0A1521"/>
<path d="M1289.18 355.321L1290.61 355.351C1292.39 358.054 1291.57 403.075 1291.55 409.655L1334.09 409.694L1334.02 445.316L1291.58 445.335C1291.6 460.695 1289.42 520.889 1293.43 531.673C1294.99 535.86 1297.72 539.315 1301.86 541.183C1311.04 545.329 1322.31 541.041 1331.09 537.717C1333.38 547.972 1335.45 562.038 1337.05 572.545C1330.33 575.121 1323.39 577.071 1316.31 578.372C1289.07 583.212 1258.83 575.689 1252.42 544.388C1249.7 531.111 1250.7 516.118 1250.7 502.498L1250.77 445.307L1220.14 445.329L1220.28 409.713L1250.77 409.681L1250.76 364.167C1263.37 361.006 1276.47 358.198 1289.18 355.321Z" fill="#0A1521"/>
<path d="M1363.34 336.308L1403.7 336.351C1402.64 414.795 1403.7 495.752 1403.68 574.428L1403.43 575.02C1400.4 577.055 1369.18 576.177 1363.17 576.15C1363.04 497.52 1361.74 414.581 1363.34 336.308Z" fill="#0A1521"/>
<path d="M327.555 263.679C333.292 263.001 345.739 263.333 351.98 263.326L398.108 263.291L452.64 263.289C463.377 263.293 473.611 263.066 484.493 263.875C525.554 266.854 534.817 326.608 494.354 339.525C482.404 343.341 466.832 342.072 454.149 342.02L374.428 341.79C361.908 341.76 336.188 340.983 324.994 343.343C316.004 345.279 307.583 349.265 300.386 354.99C275.24 374.909 271.95 410.266 292.074 435.151C298.059 441.61 304.299 445.698 311.451 450.738C328.077 462.457 330.576 485.984 317.815 501.713C311.548 509.45 302.487 514.408 292.591 515.513C275.577 517.28 257.758 507.314 244.997 496.947C219.48 476 203.245 445.842 199.811 413.008C192.303 337.075 252.635 270.836 327.555 263.679Z" fill="#BD5D3A"/>
<path d="M408.923 395.117C410.921 394.954 412.924 394.858 414.927 394.83C433.745 394.748 453.454 408.578 466.269 421.258C490.586 445.089 504.384 477.643 504.599 511.691C504.49 547.464 490.121 581.717 464.676 606.863C421.771 649.562 382.422 645.762 327.812 645.658L288.003 645.631C313.479 620.894 314.174 594.664 297.539 564.648C315.14 564.437 371.068 566.26 384.983 562.406C398.952 558.645 410.829 549.441 417.959 536.855C429.289 516.441 426.138 490.723 409.447 474.457C398.68 464.616 380.883 459.027 377.49 442.653C372.536 418.744 386.467 400.714 408.923 395.117Z" fill="#DE7356"/>
<path d="M240.955 552.72C266.757 549.252 290.507 567.298 294.081 593.086C297.654 618.874 279.707 642.697 253.934 646.378C228.01 650.079 204.017 632.004 200.422 606.065C196.827 580.127 215.002 556.207 240.955 552.72Z" fill="#BD5D3A"/>
</g>
<defs>
<clipPath id="clip0_1_10">
<rect width="1774" height="887" fill="white"/>
</clipPath>
</defs>
</svg>
